<svg xmlns="http://www.w3.org/2000/svg" width="161.669" height="161.669" viewBox="0 0 161.669 161.669"><defs><style>.a{opacity:0.5;mix-blend-mode:luminosity;isolation:isolate;}.b{fill:#462618;}</style></defs><g class="a" transform="translate(-1 -1)"><path class="b" d="M47,33.038H65.253A13.053,13.053,0,0,0,78.291,20H73.076a7.832,7.832,0,0,1-7.823,7.823H47Z" transform="translate(73.948 30.544)"/><path class="b" d="M43,23h5.215v5.215H43Z" transform="translate(67.518 35.367)"/><path class="b" d="M59.645,25.861h5.215A20.885,20.885,0,0,0,44,5v5.215A15.661,15.661,0,0,1,59.645,25.861Z" transform="translate(69.125 6.43)"/><path class="b" d="M21.823,38.645A7.823,7.823,0,1,0,14,30.823,7.832,7.832,0,0,0,21.823,38.645Zm0-10.43a2.608,2.608,0,1,1-2.608,2.608A2.61,2.61,0,0,1,21.823,28.215Z" transform="translate(20.898 35.367)"/><path class="b" d="M21.823,43.506a7.832,7.832,0,0,0,7.823-7.823V14.823a7.823,7.823,0,1,0-15.645,0V35.683A7.832,7.832,0,0,0,21.823,43.506ZM19.215,14.823a2.608,2.608,0,0,1,5.215,0V35.683a2.608,2.608,0,0,1-5.215,0Z" transform="translate(20.898 9.645)"/><path class="b" d="M27,53h5.215v5.215H27Z" transform="translate(41.797 83.594)"/><path class="b" d="M23,53h5.215v5.215H23Z" transform="translate(35.367 83.594)"/><path class="b" d="M31,53h5.215v5.215H31Z" transform="translate(48.227 83.594)"/><path class="b" d="M39,45h5.215v5.215H39Z" transform="translate(61.088 70.733)"/><path class="b" d="M35,45h5.215v5.215H35Z" transform="translate(54.657 70.733)"/><path class="b" d="M31,45h5.215v5.215H31Z" transform="translate(48.227 70.733)"/><path class="b" d="M43.43,51.861A10.43,10.43,0,1,0,33,41.43,10.441,10.441,0,0,0,43.43,51.861Zm0-15.645a5.215,5.215,0,1,1-5.215,5.215A5.22,5.22,0,0,1,43.43,36.215Z" transform="translate(51.442 48.227)"/><path class="b" d="M23,35h5.215V45.43H23Z" transform="translate(35.367 54.657)"/><path class="b" d="M27,35h5.215V45.43H27Z" transform="translate(41.797 54.657)"/><path class="b" d="M157.454,113.605v-14.6l-5.215-5.215V70.043a23.449,23.449,0,0,0-8.2-42.451A31.483,31.483,0,0,0,113.125,1,31.034,31.034,0,0,0,87.8,13.967a25.9,25.9,0,0,0-29.325,4.881L52.6,7.107a11.046,11.046,0,0,0-19.76,0L2.166,68.458A11.007,11.007,0,0,0,11.43,84.38v9.413L6.215,99.008v14.6a7.823,7.823,0,1,0,5.215,0V101.167l5.215-5.215V84.442h5.215v50.024a7.823,7.823,0,1,0,5.215,0V84.442h10.43v65.189a13.053,13.053,0,0,0,13.038,13.038h62.582a13.053,13.053,0,0,0,13.038-13.038V74.012h10.43v60.454a7.823,7.823,0,1,0,5.215,0V73.858a23.268,23.268,0,0,0,5.215-1.215V95.952l5.215,5.215v12.438a7.823,7.823,0,1,0,5.215,0ZM8.823,123.556a2.608,2.608,0,1,1,2.608-2.608A2.61,2.61,0,0,1,8.823,123.556Zm15.645,20.861a2.608,2.608,0,1,1,2.608-2.608A2.61,2.61,0,0,1,24.468,144.416ZM76.619,16.645a20.82,20.82,0,0,1,10.7,2.978l2.219,1.33,1.348-2.209A25.9,25.9,0,0,1,113.125,6.215a26.217,26.217,0,0,1,25.964,23.849l.177,2.12,2.112.25A18.246,18.246,0,0,1,139.2,68.8H83.423c-.052-.112-.091-.229-.146-.339L60.953,23.811a20.606,20.606,0,0,1,15.666-7.166ZM53.151,131.378h57.366v15.645H53.151Zm57.366-5.215H53.151V110.518h57.366Zm0-20.861H53.151V84.442H73.4A11.029,11.029,0,0,0,84.38,74.012h26.138ZM6.215,73.4a5.879,5.879,0,0,1,.615-2.608L37.506,9.438a5.831,5.831,0,0,1,10.43,0L78.612,70.789A5.831,5.831,0,0,1,73.4,79.227H12.046A5.837,5.837,0,0,1,6.215,73.4Zm114.733,76.235a7.832,7.832,0,0,1-7.823,7.823H50.544a7.832,7.832,0,0,1-7.823-7.823V84.442h5.215v62.582a5.22,5.22,0,0,0,5.215,5.215h57.366a5.22,5.22,0,0,0,5.215-5.215V74.012h5.215Zm18.253-5.215a2.608,2.608,0,1,1,2.608-2.608A2.61,2.61,0,0,1,139.2,144.416Zm15.645-20.861a2.608,2.608,0,1,1,2.608-2.608A2.61,2.61,0,0,1,154.846,123.556Z" transform="translate(0 0)"/></g></svg>