<svg xmlns="http://www.w3.org/2000/svg" width="46.033" height="48.016" viewBox="0 0 46.033 48.016"><defs><style>.a{fill:#462618;}</style></defs><g transform="translate(-9.461)"><g transform="translate(9.461)"><path class="a" d="M55.171,21.163a1.789,1.789,0,1,0-3.532.564l.005.032a19.691,19.691,0,1,1-4.89-10L38.832,14.4A1.789,1.789,0,0,0,37.7,16.661h0a1.789,1.789,0,0,0,2.262,1.132h0l10.731-3.577a1.789,1.789,0,0,0,1.223-1.7V1.789a1.789,1.789,0,1,0-3.577,0V8.322a23.016,23.016,0,1,0,6.832,12.841Z" transform="translate(-9.461)"/></g></g></svg>